<svg xmlns="http://www.w3.org/2000/svg"><symbol id="cart" viewBox="0 0 32 32"><g fill="none" stroke="#000" stroke-miterlimit="10" stroke-width="1.75"><circle cx="12" cy="24.9" r="1.9"/><circle cx="23.6" cy="24.9" r="1.9"/><path d="M23.6 23H12l-1.4-4.5 11.4.3 5-8.7H8.4M4 6.5h3.2l3.4 12.1"/></g></symbol><symbol id="instagram" viewBox="0 0 32 32"><path fill="#010101" d="M16.2 6.3H21c3.3.1 4.8 1.7 4.9 4.9.1 1.3.1 1.6.1 4.8s0 3.6-.1 4.9c-.1 3.2-1.6 4.8-4.9 4.9h-9.7c-3.2-.1-4.7-1.7-4.9-4.9 0-1.3-.1-1.7-.1-4.9s.1-3.5.1-4.8c.2-3.2 1.7-4.8 4.9-4.9zm0-2.2h-5c-4.3.2-6.8 2.6-7 7V21c.2 4.3 2.7 6.8 7 7h9.9c4.4-.2 6.8-2.7 7-7 .1-1.3.1-1.7.1-5s0-3.6-.1-4.9c-.2-4.4-2.6-6.8-7-7zm0 5.9a6.1 6.1 0 0 0-6.2 6.1 6.2 6.2 0 0 0 6.2 6.2 6.1 6.1 0 0 0 6.1-6.2 6.1 6.1 0 0 0-6.1-6.1zm0 10.1a4 4 0 1 1 4-4 4 4 0 0 1-4 4zm6.4-11.8a1.5 1.5 0 0 0-1.5 1.4 1.5 1.5 0 0 0 1.5 1.5A1.5 1.5 0 0 0 24 9.7a1.4 1.4 0 0 0-1.4-1.4z"/></symbol><symbol id="location" viewBox="0 0 32 32"><path fill="none" stroke="#000" stroke-miterlimit="10" stroke-width="1.75" d="M15.8 5.5c7.8 0 12.9 11.1.3 22.3C3.4 17.2 7.9 5.5 15.8 5.5"/><ellipse cx="15.9" cy="13" fill="none" stroke="#000" stroke-miterlimit="10" stroke-width="1.75" rx="3.3" ry="3.3"/></symbol><symbol id="burger" viewBox="0 0 32 32"><path fill="none" stroke="#000" stroke-width="1.75" d="M6 7.6h19.7M6 16h19.7M6 24.4h19.7"/></symbol><symbol id="person" viewBox="0 0 32 32"><circle cx="16" cy="10.2" r="5.6" fill="none" stroke="#000" stroke-miterlimit="10" stroke-width="1.75"/><path fill="none" stroke="#000" stroke-miterlimit="10" stroke-width="1.75" d="M6 28.4c0-13.9 19.9-13.9 19.9-.4"/></symbol><symbol id="facebook" viewBox="0 0 32 32"><path fill="#010101" d="M12.4 12.9h-3v4h3v12h5v-12h3.7l.3-4h-4v-1.7c0-.9.2-1.3 1.2-1.3h2.8v-5h-3.8c-3.6 0-5.2 1.6-5.2 4.6z"/></symbol><symbol id="pinterest" viewBox="0 0 32 32"><path fill="#010101" fill-rule="evenodd" d="M15.9 3.5a12.6 12.6 0 0 0-4.5 24.3 14.5 14.5 0 0 1 0-3.6c.3-1 1.5-6.3 1.5-6.3a4.1 4.1 0 0 1-.4-1.9c0-1.7 1-3 2.3-3a1.6 1.6 0 0 1 1.6 1.8 23.2 23.2 0 0 1-1.1 4.1 1.8 1.8 0 0 0 1.9 2.3c2.2 0 3.9-2.3 3.9-5.7a5 5 0 0 0-5.2-5.2 5.5 5.5 0 0 0-5.7 5.5 5.3 5.3 0 0 0 1 2.9.4.4 0 0 1 .1.3l-.4 1.5c0 .2-.2.2-.4.1S8 17.6 8 15.8c0-4 2.8-7.7 8.2-7.7a7.4 7.4 0 0 1 7.7 7.3c0 4.3-2.7 7.8-6.5 7.8a3.2 3.2 0 0 1-2.8-1.4l-.8 3a14.5 14.5 0 0 1-1.6 3.3 11.4 11.4 0 0 0 3.7.5 12.6 12.6 0 0 0 0-25.1z"/></symbol><symbol id="person-white" viewBox="0 0 32 32"><circle cx="15.9" cy="10.2" r="5.6" fill="none" stroke="#fff" stroke-miterlimit="10" stroke-width="2.75"/><path fill="none" stroke="#fff" stroke-miterlimit="10" stroke-width="2.75" d="M5.9 28.4c0-14 19.9-14 19.9-.5"/></symbol><symbol id="search" viewBox="0 0 32 32"><ellipse cx="15" cy="13.2" fill="none" stroke="#000" stroke-miterlimit="10" stroke-width="1.75" rx="7.8" ry="7.7" transform="rotate(-84.2 14.98 13.234)"/><path fill="none" stroke="#000" stroke-miterlimit="10" stroke-width="1.75" d="M19.5 19.6l6.4 7.8"/></symbol><symbol id="twitter" viewBox="0 0 32 32"><path fill="#010101" d="M28.5 9.4a9 9 0 0 1-2.8.8 4.7 4.7 0 0 0 2.1-2.7 14.3 14.3 0 0 1-3.1 1.2 4.8 4.8 0 0 0-3.6-1.6 4.9 4.9 0 0 0-4.8 6A13.7 13.7 0 0 1 6.2 8a4.9 4.9 0 0 0 1.5 6.6 5.1 5.1 0 0 1-2.2-.6 5 5 0 0 0 3.9 4.9 5.4 5.4 0 0 1-2.2 0 5 5 0 0 0 4.6 3.5 10.1 10.1 0 0 1-7.3 2 14.1 14.1 0 0 0 7.6 2.2 13.9 13.9 0 0 0 14-14.6 9.9 9.9 0 0 0 2.4-2.6z"/></symbol><symbol id="youtube" viewBox="0 0 32 32"><path fill="#010101" d="M8.5 3H10l1.1 4 1-4h1.6l-1.8 5.9V13h-1.6V8.9zm7.1 2.5a1.9 1.9 0 0 0-2 2v3.7a1.8 1.8 0 0 0 2 2 1.9 1.9 0 0 0 2-2V7.5a2 2 0 0 0-2-2zm.6 5.6c0 .4-.2.7-.6.7s-.6-.3-.6-.7V7.7c0-.4.2-.7.6-.7s.6.2.6.7zm5.1-5.5v5.6a1 1 0 0 1-.8.6c-.3 0-.3-.2-.3-.5V5.6h-1.4v6.2c0 .7.2 1.3.9 1.3a2.1 2.1 0 0 0 1.6-.9v.8h1.4V5.6zm2.4 15.1c-.5 0-.6.3-.6.8v.7h1.2v-.7c0-.5-.1-.8-.6-.8zm-5.1 0l-.3.2v4.4l.4.3c.2.1.5.1.6-.1a.7.7 0 0 0 .1-.5v-3.6c0-.3 0-.5-.1-.6a.6.6 0 0 0-.7-.1zm5.3-5.6c-2.9-.2-12.1-.2-14.9 0s-3.4 2-3.4 6.9.4 6.7 3.4 6.9 12 .2 14.9 0 3.4-2.1 3.4-6.9-.4-6.7-3.4-6.9zM10.5 26.7H9v-8.2H7.5v-1.4H12v1.4h-1.5v8.2zm5.2 0h-1.3v-.8l-.7.7c-.7.4-1.7.3-1.7-1.1v-5.9h1.3V25c0 .3.1.5.4.5a1.2 1.2 0 0 0 .7-.5v-5.4h1.3v7.1zm5.1-1.5c0 .9-.3 1.6-1.2 1.6a1.6 1.6 0 0 1-1.3-.7v.6H17v-9.6h1.3v3.1a1.5 1.5 0 0 1 1.2-.7c1 0 1.3.8 1.3 1.8v3.9zm4.9-1.9h-2.6v1.3c0 .6.1 1 .6 1s.6-.3.6-1v-.4h1.4v.5c0 1.3-.6 2.2-2 2.2s-1.9-.9-1.9-2.2v-3.2a2 2 0 0 1 2-2.1c1.3 0 1.9.8 1.9 2.1v1.8z"/></symbol></svg>